<svg width="21" height="22" fill="none" xmlns="http://www.w3.org/2000/svg">
<path fill-rule="evenodd" clip-rule="evenodd" d="M10.4999 2.367C11.9009 2.31452 13.3039 2.3536 14.6999 2.484C15.3769 2.47556 16.0496 2.59429 16.6829 2.834C17.5564 3.24136 18.2585 3.94346 18.6659 4.817C18.9056 5.45028 19.0243 6.12292 19.0159 6.8C19.0159 7.85 19.1329 8.2 19.1329 11C19.1853 12.4011 19.1462 13.804 19.0159 15.2C19.0243 15.8771 18.9056 16.5497 18.6659 17.183C18.2585 18.0565 17.5564 18.7586 16.6829 19.166C16.0496 19.4057 15.3769 19.5244 14.6999 19.516C13.6499 19.516 13.2999 19.633 10.4999 19.633C9.0988 19.6855 7.69581 19.6464 6.29985 19.516C5.62277 19.5244 4.95013 19.4057 4.31685 19.166C3.44331 18.7586 2.74121 18.0565 2.33385 17.183C2.09414 16.5497 1.97541 15.8771 1.98385 15.2C1.98385 14.15 1.86685 13.8 1.86685 11C1.81437 9.59895 1.85345 8.19596 1.98385 6.8C1.97541 6.12292 2.09414 5.45028 2.33385 4.817C2.53727 4.38429 2.81326 3.98959 3.14985 3.65C3.42346 3.24177 3.83964 2.95041 4.31685 2.833C4.95013 2.59329 5.62277 2.47456 6.29985 2.483C7.69581 2.3526 9.0988 2.31352 10.4999 2.366M10.4999 0.5C9.05982 0.448736 7.61799 0.487812 6.18285 0.617C5.30628 0.614838 4.43669 0.772762 3.61685 1.083C2.90866 1.31392 2.2677 1.71456 1.74985 2.25C1.21442 2.76785 0.813773 3.40881 0.58285 4.117C0.216863 4.92037 0.0567108 5.80224 0.11685 6.683C-0.0123375 8.11814 -0.0514142 9.55997 -0.000149706 11C-0.0514142 12.44 -0.0123375 13.8819 0.11685 15.317C0.114886 16.194 0.273151 17.0639 0.58385 17.884C0.814632 18.5917 1.21492 19.2323 1.74985 19.75C2.2677 20.2854 2.90866 20.6861 3.61685 20.917C4.43694 21.2277 5.30688 21.386 6.18385 21.384C7.61868 21.5128 9.06017 21.5516 10.4999 21.5C11.9399 21.5513 13.3817 21.5122 14.8169 21.383C15.6938 21.385 16.5638 21.2267 17.3839 20.916C18.0865 20.6739 18.7247 20.2749 19.2502 19.7494C19.7758 19.2239 20.1747 18.5856 20.4169 17.883C20.7276 17.0629 20.8858 16.193 20.8839 15.316C20.8839 14.149 21.0009 13.799 21.0009 10.999C21.0521 9.55897 21.013 8.11714 20.8839 6.682C20.8858 5.80503 20.7276 4.93509 20.4169 4.115C20.1856 3.40753 19.785 2.76728 19.2499 2.25C18.732 1.71456 18.091 1.31392 17.3829 1.083C16.563 0.772762 15.6934 0.614838 14.8169 0.617C13.3817 0.487812 11.9399 0.448736 10.4999 0.5M10.4999 5.633C9.7918 5.62123 9.08862 5.75202 8.43215 6.01757C7.77568 6.28312 7.17933 6.67801 6.6786 7.17875C6.17786 7.67948 5.78297 8.27583 5.51742 8.9323C5.25187 9.58877 5.12108 10.292 5.13285 11C5.13285 12.0615 5.44762 13.0991 6.03735 13.9817C6.62709 14.8643 7.4653 15.5522 8.44599 15.9585C9.42668 16.3647 10.5058 16.471 11.5469 16.2639C12.588 16.0568 13.5443 15.5456 14.2949 14.795C15.0455 14.0445 15.5566 13.0881 15.7637 12.047C15.9708 11.006 15.8645 9.92683 15.4583 8.94614C15.0521 7.96545 14.3642 7.12724 13.4816 6.5375C12.599 5.94777 11.5613 5.633 10.4999 5.633M10.4999 14.5C10.0379 14.5084 9.57901 14.4236 9.15057 14.2507C8.72213 14.0778 8.33294 13.8203 8.00625 13.4936C7.67955 13.1669 7.42206 12.7777 7.24914 12.3493C7.07623 11.9208 6.99144 11.4619 6.99985 11C6.99144 10.5381 7.07623 10.0792 7.24914 9.65072C7.42206 9.22228 7.67955 8.83309 8.00625 8.5064C8.33294 8.1797 8.72213 7.92221 9.15057 7.74929C9.57901 7.57638 10.0379 7.49159 10.4999 7.5C10.9618 7.49159 11.4207 7.57638 11.8491 7.74929C12.2776 7.92221 12.6668 8.1797 12.9935 8.5064C13.3201 8.83309 13.5776 9.22228 13.7506 9.65072C13.9235 10.0792 14.0083 10.5381 13.9999 11C14.0083 11.4619 13.9235 11.9208 13.7506 12.3493C13.5776 12.7777 13.3201 13.1669 12.9935 13.4936C12.6668 13.8203 12.2776 14.0778 11.8491 14.2507C11.4207 14.4236 10.9618 14.5084 10.4999 14.5M16.0999 4.117C15.8461 4.117 15.598 4.19225 15.3871 4.33322C15.1761 4.4742 15.0116 4.67458 14.9145 4.90902C14.8174 5.14345 14.792 5.40142 14.8415 5.6503C14.891 5.89918 15.0132 6.12779 15.1926 6.30722C15.3721 6.48665 15.6007 6.60884 15.8495 6.65835C16.0984 6.70785 16.3564 6.68244 16.5908 6.58534C16.8253 6.48823 17.0256 6.32379 17.1666 6.1128C17.3076 5.90181 17.3829 5.65375 17.3829 5.4C17.3797 5.0607 17.2435 4.73618 17.0036 4.49624C16.7637 4.25631 16.4392 4.12013 16.0999 4.117Z" fill="white"/>
</svg>
