<svg width="22" height="22" fill="none" xmlns="http://www.w3.org/2000/svg">
<path d="M3.59918 3.87969C4.50074 2.87794 5.60926 2.0841 6.84797 1.55315C8.08669 1.0222 9.426 0.766819 10.7732 0.804688C12.1204 0.766819 13.4597 1.0222 14.6984 1.55315C15.9371 2.0841 17.0456 2.87794 17.9472 3.87969C18.9493 4.78107 19.7435 5.8895 20.2748 7.12823C20.8061 8.36695 21.0618 9.70636 21.0242 11.0537C21.062 12.4009 20.8067 13.7402 20.2757 14.9789C19.7448 16.2176 18.9509 17.3261 17.9492 18.2277C17.0476 19.2301 15.9388 20.0244 14.6997 20.5557C13.4606 21.087 12.1208 21.3426 10.7732 21.3047C9.426 21.3426 8.08669 21.0872 6.84797 20.5562C5.60926 20.0253 4.50074 19.2314 3.59918 18.2297C1.66568 16.3384 0.560038 13.7582 0.52418 11.0537C0.486311 9.70651 0.741693 8.3672 1.27264 7.12848C1.8036 5.88977 2.59743 4.78125 3.59918 3.87969ZM12.1402 19.2527C13.1537 19.0717 14.0654 18.5247 14.7022 17.7157C15.4036 16.6429 15.8169 15.4076 15.9022 14.1287C15.9055 13.7471 15.8315 13.3687 15.6847 13.0164C15.538 12.6641 15.3214 12.3451 15.0482 12.0787C14.7701 11.7614 14.4284 11.5061 14.0452 11.3295C13.6621 11.1529 13.246 11.059 12.8242 11.0537H11.1152C10.588 11.0218 10.0692 10.9063 9.57818 10.7117C9.4108 10.5609 9.27829 10.3754 9.18987 10.1681C9.10145 9.96091 9.05924 9.73689 9.06618 9.51169C9.0687 9.37956 9.10072 9.24966 9.15989 9.13149C9.21907 9.01332 9.30389 8.90987 9.40818 8.82869C9.59646 8.64887 9.8344 8.52972 10.0912 8.48669C10.2625 8.50369 10.4279 8.55842 10.5756 8.64694C10.7232 8.73547 10.8495 8.85559 10.9452 8.99869C11.2872 9.16969 11.4572 9.34069 11.6282 9.34069C11.8689 9.36595 12.1108 9.30539 12.3112 9.16969C12.4469 8.96928 12.5074 8.72739 12.4822 8.48669C12.4112 7.83403 12.1065 7.22911 11.6242 6.78369C12.1653 5.7863 12.4582 4.67324 12.4782 3.53869C12.4723 3.44991 12.4344 3.36629 12.3715 3.30338C12.3086 3.24047 12.225 3.20256 12.1362 3.19669C11.6978 3.02212 11.2381 2.9071 10.7692 2.85469C9.19246 2.89183 7.65678 3.36461 6.33218 4.22069C5.83459 4.63727 5.43775 5.16108 5.1714 5.75284C4.90504 6.34461 4.77608 6.98899 4.79418 7.63769C4.78475 8.24378 4.9014 8.84521 5.13672 9.40382C5.37205 9.96244 5.72091 10.466 6.16118 10.8827C7.02286 11.7446 8.18752 12.2352 9.40618 12.2497V12.9327C9.38955 13.2499 9.44201 13.5669 9.55994 13.8618C9.67787 14.1567 9.85844 14.4224 10.0892 14.6407C10.4504 15.1666 11 15.5336 11.6242 15.6657V18.7407C11.6242 18.9117 11.6242 18.9117 11.7952 19.0827C11.9662 19.2537 11.9692 19.2527 12.1392 19.2527H12.1402Z" fill="white"/>
</svg>
